<?xml version="1.0" encoding="UTF-8"?>
<svg version="1.1" xmlns="http://www.w3.org/2000/svg" width="39" height="44">
<path d="M0 0 C12.87 0 25.74 0 39 0 C39 14.52 39 29.04 39 44 C26.13 44 13.26 44 0 44 C0 29.48 0 14.96 0 0 Z " fill="#F1F2F3" transform="translate(0,0)"/>
<path d="M0 0 C1.12535156 0.00580078 1.12535156 0.00580078 2.2734375 0.01171875 C3.02367187 0.00785156 3.77390625 0.00398438 4.546875 0 C10.14682697 0.01010822 10.14682697 0.01010822 11.2734375 1.13671875 C11.34523714 2.65599913 11.35735757 4.17839357 11.3359375 5.69921875 C11.32691406 6.52550781 11.31789063 7.35179687 11.30859375 8.203125 C11.29699219 8.84121094 11.28539063 9.47929688 11.2734375 10.13671875 C10.6134375 10.13671875 9.9534375 10.13671875 9.2734375 10.13671875 C9.2734375 7.49671875 9.2734375 4.85671875 9.2734375 2.13671875 C4.6534375 2.13671875 0.0334375 2.13671875 -4.7265625 2.13671875 C-4.7265625 4.77671875 -4.7265625 7.41671875 -4.7265625 10.13671875 C-5.3865625 10.13671875 -6.0465625 10.13671875 -6.7265625 10.13671875 C-6.75345466 8.65764983 -6.77290871 7.17844392 -6.7890625 5.69921875 C-6.80066406 4.87550781 -6.81226563 4.05179688 -6.82421875 3.203125 C-6.61988247 -1.12063069 -3.63243956 0.00655675 0 0 Z " fill="#2A2A2A" transform="translate(13.7265625,22.86328125)"/>
<path d="M0 0 C0.66 0 1.32 0 2 0 C2 2.64 2 5.28 2 8 C6.62 8 11.24 8 16 8 C16 5.36 16 2.72 16 0 C16.66 0 17.32 0 18 0 C18.02689216 1.47906892 18.04634621 2.95827483 18.0625 4.4375 C18.07410156 5.26121094 18.08570312 6.08492187 18.09765625 6.93359375 C18 9 18 9 17 10 C14.3226862 10.09981214 11.67695825 10.13879875 9 10.125 C7.87464844 10.13080078 7.87464844 10.13080078 6.7265625 10.13671875 C1.12661053 10.12661053 1.12661053 10.12661053 0 9 C-0.07179964 7.48071962 -0.08392007 5.95832518 -0.0625 4.4375 C-0.05347656 3.61121094 -0.04445313 2.78492188 -0.03515625 1.93359375 C-0.02355469 1.29550781 -0.01195312 0.65742188 0 0 Z " fill="#2A2A2A" transform="translate(7,11)"/>
<path d="M0 0 C0.99 0.33 1.98 0.66 3 1 C2.67 1.33 2.34 1.66 2 2 C1.76924918 3.34747084 1.58846937 4.70377565 1.4375 6.0625 C1.2209375 8.0115625 1.2209375 8.0115625 1 10 C0.34 10 -0.32 10 -1 10 C-1.02689216 8.52093108 -1.04634621 7.04172517 -1.0625 5.5625 C-1.07410156 4.73878906 -1.08570313 3.91507813 -1.09765625 3.06640625 C-1 1 -1 1 0 0 Z " fill="#303030" transform="translate(8,23)"/>
<path d="M0 0 C0.66 0 1.32 0 2 0 C2 2.97 2 5.94 2 9 C1.01 9.33 0.02 9.66 -1 10 C-0.67 6.7 -0.34 3.4 0 0 Z " fill="#313131" transform="translate(23,11)"/>
</svg>
